HIERARCHY
ROOT RootJoint
{
    OFFSET   0.000000   0.000000   0.000000
    CHANNELS 6 Xposition Yposition Zposition Xrotation Yrotation Zrotation
    JOINT pelvis_lowerback
    {
        OFFSET   0.000000   0.093605   0.000000
        CHANNELS 3 Xrotation Yrotation Zrotation
        JOINT lowerback_torso
        {
            OFFSET   0.000000   0.100000   0.000000
            CHANNELS 3 Xrotation Yrotation Zrotation
            JOINT torso_head
            {
                OFFSET   0.000000   0.282350   0.000000
                CHANNELS 3 Xrotation Yrotation Zrotation
                End Site
                {
                    OFFSET   0.000000   0.192650   0.000000
                }
            }
            JOINT rTorso_Clavicle
            {
                OFFSET  -0.001000   0.157500   0.000000
                CHANNELS 3 Xrotation Yrotation Zrotation
                JOINT rShoulder
                {
                    OFFSET  -0.117647   0.000000   0.000000
                    CHANNELS 3 Xrotation Yrotation Zrotation
                    JOINT rElbow
                    {
                        OFFSET  -0.245000   0.000000   0.000000
                        CHANNELS 3 Xrotation Yrotation Zrotation
                        JOINT rWrist
                        {
                            OFFSET  -0.240000   0.000000   0.000000
                            CHANNELS 3 Xrotation Yrotation Zrotation
                            End Site
                            {
                                OFFSET  -0.116353  -0.002500   0.000000
                            }
                        }
                    }
                }
            }
            JOINT lTorso_Clavicle
            {
                OFFSET   0.001000   0.157500   0.000000
                CHANNELS 3 Xrotation Yrotation Zrotation
                JOINT lShoulder
                {
                    OFFSET   0.117647   0.000000   0.000000
                    CHANNELS 3 Xrotation Yrotation Zrotation
                    JOINT lElbow
                    {
                        OFFSET   0.245000   0.000000   0.000000
                        CHANNELS 3 Xrotation Yrotation Zrotation
                        JOINT lWrist
                        {
                            OFFSET   0.240000   0.000000   0.000000
                            CHANNELS 3 Xrotation Yrotation Zrotation
                            End Site
                            {
                                OFFSET   0.116353  -0.002500   0.000000
                            }
                        }
                    }
                }
            }
        }
    }
    JOINT rHip
    {
        OFFSET  -0.100000  -0.051395   0.000000
        CHANNELS 3 Xrotation Yrotation Zrotation
        JOINT rKnee
        {
            OFFSET   0.000000  -0.410000   0.000000
            CHANNELS 3 Xrotation Yrotation Zrotation
            JOINT rAnkle
            {
                OFFSET   0.000000  -0.390000   0.000000
                CHANNELS 3 Xrotation Yrotation Zrotation
                JOINT rToeJoint
                {
                    OFFSET   0.000000  -0.050000   0.130000
                    CHANNELS 3 Xrotation Yrotation Zrotation
                    End Site
                    {
                        OFFSET  -0.010000   0.002000   0.060000
                    }
                }
            }
        }
    }
    JOINT lHip
    {
        OFFSET   0.100000  -0.051395   0.000000
        CHANNELS 3 Xrotation Yrotation Zrotation
        JOINT lKnee
        {
            OFFSET   0.000000  -0.410000   0.000000
            CHANNELS 3 Xrotation Yrotation Zrotation
            JOINT lAnkle
            {
                OFFSET   0.000000  -0.390000   0.000000
                CHANNELS 3 Xrotation Yrotation Zrotation
                JOINT lToeJoint
                {
                    OFFSET   0.000000  -0.050000   0.130000
                    CHANNELS 3 Xrotation Yrotation Zrotation
                    End Site
                    {
                        OFFSET   0.010000   0.002000   0.060000
                    }
                }
            }
        }
    }
}
MOTION
Frames: 14
Frame Time:   0.008333
 -2.342215   0.917401   4.061725   8.020173  25.499971 -11.964157  -0.215851   9.709470  -4.238930   2.948127   5.160981  -3.166909  -5.767283 -11.876887   5.319311  -8.950810  23.452612  -6.313200 -46.843713  28.457160  18.063490  -0.000183  24.923561   0.000908  -2.788971   2.930916  -6.890387   2.339447   3.885577   0.828273  19.826362   0.444128 -35.256311  -0.000880 -25.474724  -0.001061  -0.411631  -3.973260   0.585268  -3.501608 -13.080020  -4.232232  24.683730  -0.000556   0.000545   8.816872  -6.442572  13.545373 -17.631003   0.000436  -0.000165 -19.589510 -14.737590  12.159413  18.943978  -0.000296   0.000187  -5.920740  -7.133887  -3.112592   0.189366   0.000027  -0.000000
 -2.343900   0.917045   4.061114   8.010217  25.479550 -11.960193  -0.178575   9.714498  -4.243109   2.952288   5.160866  -3.245317  -5.745505 -11.988944   5.321511  -8.860282  23.503977  -6.388351 -46.471811  28.413662  17.678564  -0.000304  24.596371   0.002161  -2.753287   2.907655  -6.820465   2.252105   3.705630   0.640228  19.553361   0.270041 -35.047567  -0.000791 -25.840035  -0.000865  -0.387096  -3.818390   0.765487  -3.721953 -13.040384  -4.186777  25.052205  -0.000716   0.000573   8.487318  -6.484011  13.524219 -17.439227   0.000199  -0.000090 -19.694086 -14.766314  12.246016  19.030174  -0.000319   0.000158  -5.901781  -7.133743  -3.241214   0.152467   0.000016  -0.000000
 -2.345673   0.916676   4.060453   7.999188  25.458700 -11.950959  -0.128086   9.705622  -4.251049   2.957269   5.147352  -3.331891  -5.720982 -12.093918   5.327746  -8.782953  23.571200  -6.481751 -46.130432  28.384197  17.312133  -0.000335  24.286006   0.003077  -2.720309   2.827409  -6.752905   2.147778   3.499377   0.450004  19.276207   0.074929 -34.853289  -0.000663 -26.198527  -0.000593  -0.362709  -3.741450   0.957353  -3.946594 -13.001250  -4.142745  25.420857  -0.000856   0.000598   8.174448  -6.519271  13.505712 -17.352893   0.000088  -0.000051 -19.798741 -14.795131  12.331593  19.107426  -0.000331   0.000134  -5.876586  -7.132268  -3.360459   0.125301   0.000011  -0.000000
 -2.347511   0.916304   4.059791   7.985152  25.430097 -11.936933  -0.075768   9.684676  -4.268115   2.961897   5.121161  -3.423112  -5.695335 -12.191457   5.336002  -8.713557  23.644849  -6.577760 -45.816382  28.365632  16.971301  -0.000308  23.999744   0.003691  -2.687854   2.755861  -6.688760   2.037300   3.282332   0.264001  19.005391  -0.126543 -34.673101  -0.000503 -26.541773  -0.000282  -0.338725  -3.718626   1.144142  -4.161204 -12.963853  -4.095898  25.768600  -0.000973   0.000593   7.876558  -6.549328  13.489734 -17.349755   0.000067  -0.000040 -19.897318 -14.819276  12.420129  19.177014  -0.000336   0.000111  -5.850485  -7.126400  -3.470590   0.106374   0.000010  -0.000000
 -2.349397   0.915930   4.059145   7.966931  25.390352 -11.918229  -0.025192   9.654322  -4.294289   2.965198   5.085501  -3.518121  -5.670256 -12.282443   5.344415  -8.649859  23.720181  -6.672135 -45.525983  28.353540  16.654680  -0.000243  23.735290   0.004073  -2.655164   2.700696  -6.626343   1.925541   3.063188   0.084712  18.744969  -0.327638 -34.505958  -0.000328 -26.867633   0.000031  -0.315103  -3.729229   1.322615  -4.363411 -12.928969  -4.045782  26.092985  -0.001070   0.000552   7.592613  -6.574896  13.476062 -17.417506   0.000121  -0.000041 -19.987938 -14.836890  12.512774  19.241189  -0.000336   0.000090  -5.825954  -7.114524  -3.572944   0.094163   0.000010  -0.000000
 -2.351318   0.915556   4.058518   7.943869  25.339348 -11.894983   0.022301   9.616526  -4.328328   2.966950   5.042659  -3.615869  -5.646405 -12.367450   5.352148  -8.591121  23.794095  -6.763167 -45.256650  28.345066  16.359921  -0.000152  23.490244   0.004279  -2.622583   2.658211  -6.565771   1.815196   2.846979  -0.087020  18.496805  -0.524655 -34.351123  -0.000151 -27.175485   0.000323  -0.291878  -3.760850   1.492174  -4.552834 -12.896937  -3.992733  26.395135  -0.001147   0.000485   7.321886  -6.596629  13.464451 -17.547444   0.000234  -0.000037 -20.069978 -14.847775  12.609346  19.301340  -0.000333   0.000070  -5.803897  -7.096624  -3.668406   0.087447   0.000010  -0.000000
 -2.353262   0.915182   4.057910   7.915747  25.278313 -11.867408   0.066128   9.572815  -4.368648   2.967157   4.994300  -3.715191  -5.623975 -12.446915   5.358890  -8.537067  23.864626  -6.850099 -45.006419  28.338446  16.084809  -0.000047  23.262636   0.004350  -2.590508   2.624316  -6.507907   1.707886   2.636742  -0.251023  18.261709  -0.715442 -34.207965   0.000018 -27.465414   0.000578  -0.269094  -3.805843   1.652616  -4.729667 -12.867782  -3.937289  26.676840  -0.001206   0.000403   7.063710  -6.615047  13.454684 -17.732477   0.000395  -0.000019 -20.143428 -14.852414  12.709155  19.358198  -0.000328   0.000051  -5.784433  -7.073355  -3.757558   0.085257   0.000009  -0.000000
 -2.355335   0.914682   4.056979   7.950774  25.211586 -11.835288   0.098592   9.534569  -4.369050   2.975064   4.979123  -3.871497  -5.600793 -12.530613   5.350976  -8.450750  23.976178  -7.067620 -44.663122  28.354169  15.651257   0.000164  22.886829   0.005516  -2.510160   2.572790  -6.452098   1.616804   2.359283  -0.426466  17.959726  -1.012204 -34.048706   0.000233 -27.965465   0.001258  -0.218846  -3.583352   1.872866  -5.038271 -12.877966  -3.939141  27.023693  -0.001349   0.000221   6.849688  -6.659432  13.401243 -16.084778  -0.000741  -0.000965 -20.316349 -14.871066  12.771254  19.426174  -0.000341   0.000030  -5.731968  -7.041206  -3.896379   0.074633   0.000006  -0.000000
 -2.357472   0.914231   4.055989   7.988022  25.140843 -11.824349   0.135568   9.484675  -4.345747   2.976776   4.947340  -4.023035  -5.572721 -12.605506   5.350675  -8.379276  24.099912  -7.295943 -44.349666  28.386384  15.237260   0.000413  22.537452   0.006229  -2.428672   2.505309  -6.406175   1.501543   2.049457  -0.615052  17.648966  -1.333984 -33.905767   0.000467 -28.456693   0.001912  -0.166346  -3.474300   2.099391  -5.334534 -12.885717  -3.905153  27.389636  -0.001519   0.000095   6.505189  -6.674761  13.378887 -16.532381  -0.000036  -0.000688 -20.476605 -14.891078  12.860094  19.465301  -0.000319   0.000018  -5.665143  -7.009846  -4.016038   0.071111   0.000005  -0.000000
 -2.359631   0.913799   4.054979   8.020782  25.051430 -11.811590   0.171752   9.424033  -4.326182   2.972324   4.901503  -4.171378  -5.543594 -12.674564   5.354516  -8.316238  24.229550  -7.522933 -44.062332  28.429586  14.850081   0.000659  22.216585   0.006610  -2.348415   2.460873  -6.366970   1.376831   1.728650  -0.802599  17.343513  -1.659767 -33.776133   0.000695 -28.927000   0.002524  -0.114121  -3.441151   2.315607  -5.618571 -12.895236  -3.865037  27.719091  -0.001642  -0.000044   6.180650  -6.691159  13.356997 -16.949033   0.000516  -0.000396 -20.624099 -14.900724  12.957024  19.489479  -0.000284   0.000009  -5.593989  -6.968841  -4.124356   0.071827   0.000004  -0.000000
 -2.361796   0.913372   4.053969   8.045356  24.943730 -11.792898   0.205628   9.352885  -4.314219   2.963427   4.843912  -4.317664  -5.515297 -12.738957   5.359748  -8.259196  24.358847  -7.743265 -43.797184  28.477867  14.488238   0.000887  21.920900   0.006757  -2.269335   2.438957  -6.331916   1.249054   1.407630  -0.983997  17.048625  -1.980479 -33.656834   0.000903 -29.373225   0.003063  -0.062503  -3.453265   2.521675  -5.889247 -12.904934  -3.823213  28.020019  -0.001728  -0.000186   5.874530  -6.705319  13.337069 -17.360777   0.000975  -0.000096 -20.759098 -14.899119  13.058360  19.508495  -0.000249   0.000001  -5.524612  -6.918436  -4.223661   0.075770   0.000002  -0.000000
 -2.363955   0.912949   4.052967   8.060233  24.820269 -11.767650   0.236401   9.272632  -4.309930   2.951308   4.776540  -4.461504  -5.488447 -12.799207   5.365026  -8.207182  24.483389  -7.954163 -43.551390  28.527056  14.149438   0.001092  21.647268   0.006737  -2.191997   2.432185  -6.300716   1.121716   1.092557  -1.157329  16.766738  -2.291469 -33.546463   0.001082 -29.794527   0.003511  -0.011739  -3.493105   2.718920  -6.145428 -12.914679  -3.780458  28.296924  -0.001781  -0.000322   5.585197  -6.717318  13.319059 -17.776382   0.001365   0.000208 -20.881625 -14.887246  13.162884  19.526509  -0.000221  -0.000006  -5.459218  -6.860029  -4.315993   0.082130  -0.000001   0.000000
 -2.366102   0.912528   4.051977   8.065094  24.683825 -11.736100   0.263649   9.184924  -4.312260   2.936698   4.701216  -4.602127  -5.463244 -12.855645   5.369731  -8.159744  24.600498  -8.154265 -43.322862  28.574554  13.831573   0.001269  21.393162   0.006597  -2.116919   2.434096  -6.273768   0.996982   0.787172  -1.322067  16.499002  -2.590212 -33.444331   0.001231 -30.191081   0.003858   0.037982  -3.550320   2.907817  -6.386817 -12.924482  -3.737063  28.553010  -0.001808  -0.000445   5.311375  -6.727425  13.302835 -18.199610   0.001700   0.000513 -20.991976 -14.866399  13.269728  19.545096  -0.000199  -0.000013  -5.398357  -6.795103  -4.402309   0.090406  -0.000004   0.000000
 -2.368318   0.912020   4.050742   8.055863  24.553715 -11.706359   0.324729   9.089226  -4.257906   2.941085   4.681737  -4.754038  -5.433627 -12.879621   5.350361  -8.089186  24.738397  -8.427761 -43.040290  28.629349  13.384682   0.001642  21.052884   0.007061  -1.998001   2.407501  -6.284937   0.928109   0.415183  -1.530890  16.147440  -3.033986 -33.304219   0.001610 -30.780000   0.005158   0.105306  -3.321061   3.169266  -6.721641 -12.985840  -3.706993  28.989649  -0.002212  -0.000846   4.821303  -6.804069  13.229751 -17.809783   0.000910  -0.000152 -21.100916 -14.865175  13.380379  19.532574  -0.000144  -0.000004  -5.140779  -6.744851  -4.509265  -0.717225   0.000081   0.000081
